<svg version="1.1" id="Layer_1" xmlns="http://www.w3.org/2000/svg" xmlns:xlink="http://www.w3.org/1999/xlink" x="0px" y="0px"
	 width="100%" viewBox="0 0 1408 736" enable-background="new 0 0 1408 736" xml:space="preserve">
<path fill="#000000" opacity="1.000000" stroke="none" 
	d="
M831.000000,737.000000 
	C554.032166,737.000000 277.564362,737.000000 1.048280,737.000000 
	C1.048280,491.727417 1.048280,246.454834 1.048280,1.091118 
	C470.217926,1.091118 939.435852,1.091118 1408.826904,1.091118 
	C1408.826904,246.333237 1408.826904,491.666595 1408.826904,737.000000 
	C1216.454590,737.000000 1023.977295,737.000000 831.000000,737.000000 
M656.584290,490.828522 
	C686.286438,492.190125 715.848267,490.974854 745.199524,485.964661 
	C780.505554,479.938019 814.382324,469.604492 845.612305,451.730560 
	C869.759827,437.910126 891.034424,420.756470 905.240417,396.261627 
	C923.579834,364.639557 923.568848,332.783539 905.441650,301.034637 
	C897.506104,287.135742 886.879761,275.485626 874.609375,265.295410 
	C849.116089,244.124023 819.728943,230.445679 788.244446,221.066467 
	C739.273254,206.478012 689.282227,202.657791 638.526062,207.772339 
	C602.892639,211.363022 568.376221,219.424423 535.595703,234.057480 
	C506.997894,246.823410 481.060059,263.437286 461.814850,288.762604 
	C444.216888,311.920288 435.801178,337.703766 442.124084,366.913696 
	C447.390961,391.245026 461.033081,410.636444 479.145660,427.119812 
	C499.213318,445.382385 522.578491,458.215424 547.704285,468.025940 
	C582.413818,481.578461 618.583252,488.264313 656.584290,490.828522 
z"/>
<path fill="#FAFAFA" opacity="1.000000" stroke="none" 
	d="
M656.105469,490.801788 
	C618.583252,488.264313 582.413818,481.578461 547.704285,468.025940 
	C522.578491,458.215424 499.213318,445.382385 479.145660,427.119812 
	C461.033081,410.636444 447.390961,391.245026 442.124084,366.913696 
	C435.801178,337.703766 444.216888,311.920288 461.814850,288.762604 
	C481.060059,263.437286 506.997894,246.823410 535.595703,234.057480 
	C568.376221,219.424423 602.892639,211.363022 638.526062,207.772339 
	C689.282227,202.657791 739.273254,206.478012 788.244446,221.066467 
	C819.728943,230.445679 849.116089,244.124023 874.609375,265.295410 
	C886.879761,275.485626 897.506104,287.135742 905.441650,301.034637 
	C923.568848,332.783539 923.579834,364.639557 905.240417,396.261627 
	C891.034424,420.756470 869.759827,437.910126 845.612305,451.730560 
	C814.382324,469.604492 780.505554,479.938019 745.199524,485.964661 
	C715.848267,490.974854 686.286438,492.190125 656.105469,490.801788 
M797.079468,237.287292 
	C763.445862,225.786011 728.825867,219.825394 693.327942,218.669250 
	C644.891785,217.091721 597.674927,223.313171 552.328186,240.995346 
	C523.006470,252.428848 496.245941,267.928040 475.382660,292.129242 
	C446.111420,326.083618 445.008362,366.880859 473.126526,401.785980 
	C480.469147,410.900818 489.249390,419.201660 498.553894,426.330200 
	C532.482727,452.324524 571.865662,465.507294 613.403015,472.934509 
	C653.236511,480.057068 693.268982,480.539978 733.312439,474.903320 
	C770.478088,469.671722 806.127869,459.425507 838.938416,440.725647 
	C860.741455,428.299377 880.097290,412.984924 893.498230,391.265015 
	C903.707031,374.718903 908.299316,356.825104 905.317566,337.363159 
	C901.767944,314.194641 889.267700,296.080261 872.517700,280.583435 
	C850.910095,260.592560 825.300354,247.423737 797.079468,237.287292 
z"/>
<path fill="#020202" opacity="1.000000" stroke="none" 
	d="
M797.430786,237.467010 
	C825.300354,247.423737 850.910095,260.592560 872.517700,280.583435 
	C889.267700,296.080261 901.767944,314.194641 905.317566,337.363159 
	C908.299316,356.825104 903.707031,374.718903 893.498230,391.265015 
	C880.097290,412.984924 860.741455,428.299377 838.938416,440.725647 
	C806.127869,459.425507 770.478088,469.671722 733.312439,474.903320 
	C693.268982,480.539978 653.236511,480.057068 613.403015,472.934509 
	C571.865662,465.507294 532.482727,452.324524 498.553894,426.330200 
	C489.249390,419.201660 480.469147,410.900818 473.126526,401.785980 
	C445.008362,366.880859 446.111420,326.083618 475.382660,292.129242 
	C496.245941,267.928040 523.006470,252.428848 552.328186,240.995346 
	C597.674927,223.313171 644.891785,217.091721 693.327942,218.669250 
	C728.825867,219.825394 763.445862,225.786011 797.430786,237.467010 
M679.683044,348.200867 
	C686.523743,352.676025 693.420654,357.068085 700.190552,361.647888 
	C708.207275,367.071167 716.244812,372.479645 724.032898,378.220642 
	C731.995178,384.090118 739.728455,390.277191 747.447083,396.468414 
	C754.838623,402.397278 762.044861,408.577179 766.461792,417.205933 
	C767.140930,418.532715 767.419678,420.992096 766.656433,421.962219 
	C763.954712,425.396088 761.265564,429.442810 757.583984,431.387299 
	C747.353882,436.790558 736.708801,441.442780 726.071106,446.028778 
	C717.545227,449.704407 708.710815,452.667664 700.210999,456.397461 
	C698.695312,457.062592 697.359497,459.961273 697.435059,461.766144 
	C697.482666,462.904205 700.208923,464.649506 701.904114,464.882568 
	C713.021790,466.411255 723.578857,463.063629 734.056580,460.206207 
	C744.673401,457.310760 755.030640,453.467377 765.514038,450.077667 
	C780.341064,445.283478 794.973145,440.068970 808.180664,431.531219 
	C817.353577,425.601562 819.084290,417.904602 811.963074,409.680847 
	C806.115906,402.928619 799.691040,396.509552 792.737671,390.918549 
	C779.812195,380.525574 766.310913,370.849121 753.064697,360.854004 
	C752.156738,360.168884 751.376343,359.314575 750.143066,358.175415 
	C758.717896,358.175415 766.720154,357.121277 774.313904,358.432739 
	C784.627014,360.213898 794.820007,363.265900 804.699646,366.794586 
	C812.230103,369.484192 819.934875,372.551636 825.248901,379.221252 
	C828.809998,383.690735 832.497498,388.064026 835.933411,392.627289 
	C838.490967,396.024109 840.735718,399.656403 843.119812,403.183838 
	C843.136902,396.574371 842.280334,390.273102 841.534607,383.958740 
	C840.526550,375.424377 842.594360,366.412354 851.819397,362.881683 
	C857.348633,360.765503 863.495544,359.927002 869.446106,359.342438 
	C875.367004,358.760803 881.389709,359.215027 887.367737,359.215027 
	C884.528381,357.819763 881.827087,356.763519 879.026245,356.217651 
	C875.768066,355.582672 875.612000,353.356079 876.069275,350.996246 
	C877.654114,342.816895 880.948547,336.227814 890.723999,335.802124 
	C893.312073,335.689453 895.874695,334.990906 898.286987,334.588409 
	C879.243835,330.486420 878.533997,330.804901 875.477600,312.592499 
	C874.891907,315.655212 874.536560,318.021790 873.977112,320.339111 
	C872.564514,326.190521 869.991882,330.948120 863.251221,332.047668 
	C859.674561,332.631134 856.167725,333.642029 851.558716,334.707458 
	C871.240356,336.068359 872.815552,340.458832 874.989441,355.173370 
	C870.696411,354.361359 866.491150,354.003296 862.583313,352.731445 
	C855.499695,350.425903 848.561523,347.656860 841.620789,344.933014 
	C832.702087,341.432922 824.893555,336.148682 818.983704,328.626129 
	C812.704041,320.632690 807.019836,312.171509 800.892639,303.340607 
	C800.359619,303.294159 799.826599,303.247711 799.293579,303.201263 
	C799.591248,303.650604 799.888916,304.099945 800.552185,305.297913 
	C800.983948,307.373627 801.587952,309.430695 801.815186,311.528534 
	C802.489807,317.758240 803.532410,324.197266 800.288513,329.934509 
	C797.527893,334.817200 793.867554,338.422485 787.159119,338.140808 
	C775.128174,337.635651 763.060791,337.998291 749.644348,337.998291 
	C752.469421,335.728027 754.163696,334.325409 755.900330,332.977448 
	C770.160278,321.909180 784.513184,310.958160 798.643127,299.726501 
	C803.044739,296.227722 806.909241,292.038208 810.914429,288.058960 
	C818.012939,281.006226 817.983032,269.918823 810.188049,265.723358 
	C799.424133,259.929993 788.443665,254.262177 776.991577,250.089249 
	C759.916016,243.867203 742.457642,238.601654 724.936890,233.741241 
	C717.741516,231.745224 709.973328,231.621536 702.434875,231.204819 
	C700.771484,231.112885 697.867859,233.154297 697.555420,234.638550 
	C697.243042,236.122360 699.243591,238.343094 700.649109,239.850067 
	C701.578186,240.846207 703.222595,241.212555 704.587524,241.759033 
	C717.308777,246.851944 730.174438,251.613174 742.720032,257.105927 
	C751.475098,260.939056 760.861755,264.306244 765.825745,273.578278 
	C766.458862,274.760864 767.235718,276.666626 766.731934,277.523834 
	C764.089233,282.020111 761.701050,286.962006 758.015747,290.484467 
	C751.477295,296.734100 744.239685,302.301239 736.986145,307.742737 
	C725.249023,316.547791 713.370300,325.174896 701.340515,333.575165 
	C694.102173,338.629578 686.464294,343.111755 678.573608,347.165192 
	C671.832458,342.803864 665.030273,338.533295 658.365845,334.057709 
	C650.467590,328.753479 642.551758,323.457642 634.895081,317.816650 
	C627.055786,312.041107 619.570068,305.788177 611.838867,299.862610 
	C604.018799,293.868896 597.006775,287.174927 592.526794,278.247406 
	C591.989563,277.176788 591.725891,275.214935 592.329102,274.455597 
	C595.050781,271.029694 597.550354,266.813080 601.191345,264.849121 
	C611.387878,259.349213 622.016174,254.608353 632.653748,249.980988 
	C640.708740,246.477051 649.012695,243.534180 657.261475,240.492706 
	C660.446655,239.318283 662.914734,237.193008 661.558472,234.057053 
	C660.846619,232.410965 657.361633,231.219086 655.072510,231.119553 
	C638.584351,230.402649 623.480774,236.717941 608.086121,241.189117 
	C596.939941,244.426376 586.051392,248.671127 575.279114,253.036850 
	C566.992004,256.395416 559.001892,260.516174 550.992432,264.523315 
	C539.448059,270.298981 541.506348,281.961700 549.555054,289.073792 
	C554.253540,293.225555 558.277344,298.140747 561.986023,302.058838 
	C550.155884,326.550934 534.609985,346.794495 505.906403,352.346436 
	C507.591370,347.417511 506.917969,341.016846 512.884521,338.439301 
	C517.693298,336.361908 522.999084,335.434937 526.351746,334.487274 
	C522.565430,333.144348 516.054993,332.482208 512.082275,328.958771 
	C508.180267,325.497955 506.856293,319.130432 504.729065,314.718933 
	C505.735138,329.181824 495.545471,333.453033 482.257812,334.387604 
	C499.961090,336.221771 503.036591,339.449341 504.530884,353.306274 
	C498.113281,354.967285 491.739746,356.616882 485.366211,358.266479 
	C488.287506,359.035400 491.076904,358.695190 493.868988,358.671478 
	C496.533722,358.648865 499.251740,358.686859 501.856842,359.175354 
	C506.967682,360.133759 512.399658,360.607880 517.000122,362.769348 
	C523.746643,365.939148 527.061523,376.134216 525.773926,383.719238 
	C524.722473,389.912842 524.663635,396.274963 524.135559,402.929413 
	C528.546814,396.114349 532.993591,389.961212 536.674683,383.379852 
	C541.511963,374.731140 549.818726,370.531311 558.060425,366.901672 
	C566.688782,363.101776 575.962280,360.248993 585.241394,358.606964 
	C592.789856,357.271149 600.763062,358.335541 609.183838,358.335541 
	C603.494019,362.767548 598.496887,366.676178 593.482361,370.562531 
	C582.547791,379.037170 571.492554,387.361542 560.717834,396.034546 
	C556.204163,399.667786 552.182983,403.937347 548.104675,408.081696 
	C540.883850,415.419556 541.129761,426.689789 549.000549,430.758698 
	C559.582703,436.229309 570.241150,441.800690 581.405518,445.839722 
	C598.669128,452.085266 616.270874,457.497101 633.971130,462.386871 
	C641.332458,464.420471 649.314819,464.215179 657.018005,464.996582 
	C659.381775,465.236389 661.726318,464.484650 661.595703,461.931702 
	C661.498169,460.025513 660.136963,457.885498 658.732483,456.437317 
	C657.569214,455.237946 655.536438,454.857727 653.861450,454.182709 
	C641.308716,449.124207 628.640625,444.332733 616.228882,438.949951 
	C607.587463,435.202301 598.175659,432.174713 593.394287,422.903290 
	C592.609375,421.381348 592.016418,418.989227 592.668518,417.647461 
	C594.370544,414.144989 596.230835,410.345764 599.064758,407.834961 
	C608.778442,399.228668 618.748047,390.882202 628.982300,382.901093 
	C638.138123,375.761047 647.710815,369.146973 657.215942,362.466492 
	C664.379761,357.431519 671.727539,352.658325 679.683044,348.200867 
z"/>
<path fill="#FCFCFC" opacity="1.000000" stroke="none" 
	d="
M801.075562,303.914581 
	C807.019836,312.171509 812.704041,320.632690 818.983704,328.626129 
	C824.893555,336.148682 832.702087,341.432922 841.620789,344.933014 
	C848.561523,347.656860 855.499695,350.425903 862.583313,352.731445 
	C866.491150,354.003296 870.696411,354.361359 874.989441,355.173370 
	C872.815552,340.458832 871.240356,336.068359 851.558716,334.707458 
	C856.167725,333.642029 859.674561,332.631134 863.251221,332.047668 
	C869.991882,330.948120 872.564514,326.190521 873.977112,320.339111 
	C874.536560,318.021790 874.891907,315.655212 875.477600,312.592499 
	C878.533997,330.804901 879.243835,330.486420 898.286987,334.588409 
	C895.874695,334.990906 893.312073,335.689453 890.723999,335.802124 
	C880.948547,336.227814 877.654114,342.816895 876.069275,350.996246 
	C875.612000,353.356079 875.768066,355.582672 879.026245,356.217651 
	C881.827087,356.763519 884.528381,357.819763 887.367737,359.215027 
	C881.389709,359.215027 875.367004,358.760803 869.446106,359.342438 
	C863.495544,359.927002 857.348633,360.765503 851.819397,362.881683 
	C842.594360,366.412354 840.526550,375.424377 841.534607,383.958740 
	C842.280334,390.273102 843.136902,396.574371 843.119812,403.183838 
	C840.735718,399.656403 838.490967,396.024109 835.933411,392.627289 
	C832.497498,388.064026 828.809998,383.690735 825.248901,379.221252 
	C819.934875,372.551636 812.230103,369.484192 804.699646,366.794586 
	C794.820007,363.265900 784.627014,360.213898 774.313904,358.432739 
	C766.720154,357.121277 758.717896,358.175415 750.143066,358.175415 
	C751.376343,359.314575 752.156738,360.168884 753.064697,360.854004 
	C766.310913,370.849121 779.812195,380.525574 792.737671,390.918549 
	C799.691040,396.509552 806.115906,402.928619 811.963074,409.680847 
	C819.084290,417.904602 817.353577,425.601562 808.180664,431.531219 
	C794.973145,440.068970 780.341064,445.283478 765.514038,450.077667 
	C755.030640,453.467377 744.673401,457.310760 734.056580,460.206207 
	C723.578857,463.063629 713.021790,466.411255 701.904114,464.882568 
	C700.208923,464.649506 697.482666,462.904205 697.435059,461.766144 
	C697.359497,459.961273 698.695312,457.062592 700.210999,456.397461 
	C708.710815,452.667664 717.545227,449.704407 726.071106,446.028778 
	C736.708801,441.442780 747.353882,436.790558 757.583984,431.387299 
	C761.265564,429.442810 763.954712,425.396088 766.656433,421.962219 
	C767.419678,420.992096 767.140930,418.532715 766.461792,417.205933 
	C762.044861,408.577179 754.838623,402.397278 747.447083,396.468414 
	C739.728455,390.277191 731.995178,384.090118 724.032898,378.220642 
	C716.244812,372.479645 708.207275,367.071167 700.190552,361.647888 
	C693.420654,357.068085 686.523743,352.676025 679.340698,348.007507 
	C678.998413,347.814148 679.006042,347.851166 679.006042,347.851135 
	C686.464294,343.111755 694.102173,338.629578 701.340515,333.575165 
	C713.370300,325.174896 725.249023,316.547791 736.986145,307.742737 
	C744.239685,302.301239 751.477295,296.734100 758.015747,290.484467 
	C761.701050,286.962006 764.089233,282.020111 766.731934,277.523834 
	C767.235718,276.666626 766.458862,274.760864 765.825745,273.578278 
	C760.861755,264.306244 751.475098,260.939056 742.720032,257.105927 
	C730.174438,251.613174 717.308777,246.851944 704.587524,241.759033 
	C703.222595,241.212555 701.578186,240.846207 700.649109,239.850067 
	C699.243591,238.343094 697.243042,236.122360 697.555420,234.638550 
	C697.867859,233.154297 700.771484,231.112885 702.434875,231.204819 
	C709.973328,231.621536 717.741516,231.745224 724.936890,233.741241 
	C742.457642,238.601654 759.916016,243.867203 776.991577,250.089249 
	C788.443665,254.262177 799.424133,259.929993 810.188049,265.723358 
	C817.983032,269.918823 818.012939,281.006226 810.914429,288.058960 
	C806.909241,292.038208 803.044739,296.227722 798.643127,299.726501 
	C784.513184,310.958160 770.160278,321.909180 755.900330,332.977448 
	C754.163696,334.325409 752.469421,335.728027 749.644348,337.998291 
	C763.060791,337.998291 775.128174,337.635651 787.159119,338.140808 
	C793.867554,338.422485 797.527893,334.817200 800.288513,329.934509 
	C803.532410,324.197266 802.489807,317.758240 801.815186,311.528534 
	C801.587952,309.430695 800.983948,307.373627 800.599487,304.775970 
	C800.789734,304.140900 800.932678,304.027740 801.075562,303.914581 
z"/>
<path fill="#FCFCFC" opacity="1.000000" stroke="none" 
	d="
M678.789795,347.508179 
	C679.006042,347.851166 678.998413,347.814148 678.995911,347.791382 
	C671.727539,352.658325 664.379761,357.431519 657.215942,362.466492 
	C647.710815,369.146973 638.138123,375.761047 628.982300,382.901093 
	C618.748047,390.882202 608.778442,399.228668 599.064758,407.834961 
	C596.230835,410.345764 594.370544,414.144989 592.668518,417.647461 
	C592.016418,418.989227 592.609375,421.381348 593.394287,422.903290 
	C598.175659,432.174713 607.587463,435.202301 616.228882,438.949951 
	C628.640625,444.332733 641.308716,449.124207 653.861450,454.182709 
	C655.536438,454.857727 657.569214,455.237946 658.732483,456.437317 
	C660.136963,457.885498 661.498169,460.025513 661.595703,461.931702 
	C661.726318,464.484650 659.381775,465.236389 657.018005,464.996582 
	C649.314819,464.215179 641.332458,464.420471 633.971130,462.386871 
	C616.270874,457.497101 598.669128,452.085266 581.405518,445.839722 
	C570.241150,441.800690 559.582703,436.229309 549.000549,430.758698 
	C541.129761,426.689789 540.883850,415.419556 548.104675,408.081696 
	C552.182983,403.937347 556.204163,399.667786 560.717834,396.034546 
	C571.492554,387.361542 582.547791,379.037170 593.482361,370.562531 
	C598.496887,366.676178 603.494019,362.767548 609.183838,358.335541 
	C600.763062,358.335541 592.789856,357.271149 585.241394,358.606964 
	C575.962280,360.248993 566.688782,363.101776 558.060425,366.901672 
	C549.818726,370.531311 541.511963,374.731140 536.674683,383.379852 
	C532.993591,389.961212 528.546814,396.114349 524.135559,402.929413 
	C524.663635,396.274963 524.722473,389.912842 525.773926,383.719238 
	C527.061523,376.134216 523.746643,365.939148 517.000122,362.769348 
	C512.399658,360.607880 506.967682,360.133759 501.856842,359.175354 
	C499.251740,358.686859 496.533722,358.648865 493.868988,358.671478 
	C491.076904,358.695190 488.287506,359.035400 485.366211,358.266479 
	C491.739746,356.616882 498.113281,354.967285 504.530884,353.306274 
	C503.036591,339.449341 499.961090,336.221771 482.257812,334.387604 
	C495.545471,333.453033 505.735138,329.181824 504.729065,314.718933 
	C506.856293,319.130432 508.180267,325.497955 512.082275,328.958771 
	C516.054993,332.482208 522.565430,333.144348 526.351746,334.487274 
	C522.999084,335.434937 517.693298,336.361908 512.884521,338.439301 
	C506.917969,341.016846 507.591370,347.417511 505.906403,352.346436 
	C534.609985,346.794495 550.155884,326.550934 561.986023,302.058838 
	C558.277344,298.140747 554.253540,293.225555 549.555054,289.073792 
	C541.506348,281.961700 539.448059,270.298981 550.992432,264.523315 
	C559.001892,260.516174 566.992004,256.395416 575.279114,253.036850 
	C586.051392,248.671127 596.939941,244.426376 608.086121,241.189117 
	C623.480774,236.717941 638.584351,230.402649 655.072510,231.119553 
	C657.361633,231.219086 660.846619,232.410965 661.558472,234.057053 
	C662.914734,237.193008 660.446655,239.318283 657.261475,240.492706 
	C649.012695,243.534180 640.708740,246.477051 632.653748,249.980988 
	C622.016174,254.608353 611.387878,259.349213 601.191345,264.849121 
	C597.550354,266.813080 595.050781,271.029694 592.329102,274.455597 
	C591.725891,275.214935 591.989563,277.176788 592.526794,278.247406 
	C597.006775,287.174927 604.018799,293.868896 611.838867,299.862610 
	C619.570068,305.788177 627.055786,312.041107 634.895081,317.816650 
	C642.551758,323.457642 650.467590,328.753479 658.365845,334.057709 
	C665.030273,338.533295 671.832458,342.803864 678.789795,347.508179 
M599.402344,338.000000 
	C602.428223,338.000000 605.454102,338.000000 609.569824,338.000000 
	C600.894104,331.531738 593.319763,325.920197 585.784485,320.256561 
	C578.332397,314.655334 570.919800,309.001465 563.100586,303.075684 
	C561.435364,311.823944 559.052673,319.802612 561.915894,328.316772 
	C564.201111,335.112457 567.319702,337.975708 574.529297,337.995544 
	C582.496216,338.017456 590.463196,338.000214 599.402344,338.000000 
z"/>
<path fill="#FCFCFC" opacity="1.000000" stroke="none" 
	d="
M800.416748,304.401672 
	C799.888916,304.099945 799.591248,303.650604 799.293579,303.201263 
	C799.826599,303.247711 800.359619,303.294159 800.984131,303.627594 
	C800.932678,304.027740 800.789734,304.140900 800.416748,304.401672 
z"/>
<path fill="#030303" opacity="1.000000" stroke="none" 
	d="
M598.916260,338.000000 
	C590.463196,338.000214 582.496216,338.017456 574.529297,337.995544 
	C567.319702,337.975708 564.201111,335.112457 561.915894,328.316772 
	C559.052673,319.802612 561.435364,311.823944 563.100586,303.075684 
	C570.919800,309.001465 578.332397,314.655334 585.784485,320.256561 
	C593.319763,325.920197 600.894104,331.531738 609.569824,338.000000 
	C605.454102,338.000000 602.428223,338.000000 598.916260,338.000000 
z"/>
</svg>